<svg xmlns="http://www.w3.org/2000/svg" viewBox="0 0 240 170"><defs><style>.a{fill:#007ee4}</style></defs><title>logo-en</title><path class="a" d="M0 63.79a63.8 63.8 0 0 1 108.92-45.11L92.27 35.32a40.25 40.25 0 1 0 0 56.93l16.65 16.65A63.8 63.8 0 0 1 0 63.79z"/><path class="a" d="M143.09 33.36h-20.18V53.7H102.6v20.18h20.34v20.34h20.18V73.88h20.34V53.7h-20.37zM239.2 53.7h-20.36V33.35h-20.17V53.7h-20.34v20.18h20.34v20.34h20.18V73.88h20.35zM.73 149.62h2.74l3.78 17.65 4.62-17.65h3l4.48 17.31 3.78-17.31h2.47l-4.4 20.05h-3.84l-4.12-16.49-4.2 16.49H5.18zm44 15.44a6.91 6.91 0 0 1-1.58 2.58 7.32 7.32 0 0 1-2.67 1.71 10.62 10.62 0 0 1-3.79.62 10 10 0 0 1-3.89-.74 8.72 8.72 0 0 1-3-2.09 9.45 9.45 0 0 1-2-3.25 12.16 12.16 0 0 1-.7-4.23 12.64 12.64 0 0 1 .67-4.23 8.54 8.54 0 0 1 5.23-5.37 12.38 12.38 0 0 1 4.45-.74 12.75 12.75 0 0 1 3.79.5 12.32 12.32 0 0 1 2.66 1.14l-.42 2.58a9.74 9.74 0 0 0-2.81-1.37 11.28 11.28 0 0 0-3.32-.48 9.19 9.19 0 0 0-3.29.53 5.8 5.8 0 0 0-2.3 1.55 6.57 6.57 0 0 0-1.36 2.49 11.47 11.47 0 0 0-.45 3.35 8.73 8.73 0 0 0 1.78 5.84 6.15 6.15 0 0 0 4.94 2.09 7.9 7.9 0 0 0 2.69-.41 4.78 4.78 0 0 0 1.82-1.07 4.29 4.29 0 0 0 1-1.71 7 7 0 0 0 .32-2.17v-.56h-6.43v-2.38h9.18v2.58a9.8 9.8 0 0 1-.52 3.25m3.5 4.6v-2.61q2.58-2 4.44-3.65a35.7 35.7 0 0 0 3.08-3 11.1 11.1 0 0 0 1.85-2.55 5.76 5.76 0 0 0 .59-2.53 3.59 3.59 0 0 0-1.14-2.7 4.46 4.46 0 0 0-3.18-1 7 7 0 0 0-2.63.5 8.34 8.34 0 0 0-2.19 1.3l-.31-2.63a7 7 0 0 1 2.31-1.08 11.75 11.75 0 0 1 3.09-.38 8.85 8.85 0 0 1 2.86.42 5.9 5.9 0 0 1 2.1 1.23 4.92 4.92 0 0 1 1.27 1.82 6.18 6.18 0 0 1 .43 2.35 7.55 7.55 0 0 1-.69 3.18 12.25 12.25 0 0 1-2 2.94 25.33 25.33 0 0 1-3.11 2.88q-1.82 1.48-4.09 3.14h10v2.38zm22.05 0v-16.88l-5.54 4.27v-2.83l6-4.57h2.16v20.05zm24.22.32a10.62 10.62 0 0 1-3.89-.7 8.85 8.85 0 0 1-3.11-2 9.31 9.31 0 0 1-2.06-3.3 11.9 11.9 0 0 1-.74-4.33 12.74 12.74 0 0 1 .69-4.34 9 9 0 0 1 2-3.23 8.41 8.41 0 0 1 3.08-2 11 11 0 0 1 4-.7 11.8 11.8 0 0 1 3.43.45 10.69 10.69 0 0 1 2.39 1l-.42 2.58a8.67 8.67 0 0 0-2.46-1.22 9.8 9.8 0 0 0-3-.44 6.5 6.5 0 0 0-5.05 2q-1.81 2-1.81 5.95a8.39 8.39 0 0 0 1.95 6 7 7 0 0 0 5.22 2 7.48 7.48 0 0 0 2.58-.42 11.41 11.41 0 0 0 2.24-1.3l.73 2.21a8.18 8.18 0 0 1-2.27 1.22 10.27 10.27 0 0 1-3.49.53m16.09-8.73v5.84h-2.3v-5.88h-5.6v-2h5.6v-5.88h2.3v5.88h5.6v2zm15.6 0v5.84h-2.29v-5.88h-5.6v-2h5.6v-5.88h2.29v5.88h5.61v2zm17.28-9.23v7.14h3.25a8.77 8.77 0 0 0 1.93-.2 4.12 4.12 0 0 0 1.5-.64 3 3 0 0 0 1-1.19 4.28 4.28 0 0 0 .35-1.83 2.76 2.76 0 0 0-1.18-2.53 6.32 6.32 0 0 0-3.36-.74zm0 17.67h-2.66v-20h6.13a9 9 0 0 1 5.42 1.37 5 5 0 0 1 1.86 4.34 5.83 5.83 0 0 1-1.26 4 6.23 6.23 0 0 1-3.36 1.88l5.49 8.43h-3l-5.26-8.15h-3.39zm14.8-20.04h2.66v13.17a4.46 4.46 0 0 0 1.39 3.61 5.73 5.73 0 0 0 3.82 1.18 7.49 7.49 0 0 0 2.14-.29 4.8 4.8 0 0 0 1.72-.89 4.12 4.12 0 0 0 1.13-1.49 5 5 0 0 0 .41-2.1v-13.19h2.52v13.1a7.33 7.33 0 0 1-.62 3.08 6.62 6.62 0 0 1-1.68 2.27 7.21 7.21 0 0 1-2.53 1.4 10.17 10.17 0 0 1-3.15.48 10.32 10.32 0 0 1-3.11-.45 7 7 0 0 1-2.48-1.34 6.15 6.15 0 0 1-1.64-2.23 7.59 7.59 0 0 1-.59-3.09zm26.05 20.37a12.64 12.64 0 0 1-2.18-.18 15.86 15.86 0 0 1-1.9-.45 9.19 9.19 0 0 1-1.54-.62 6.72 6.72 0 0 1-1.11-.68l.42-2.52a7.91 7.91 0 0 0 1.08.7 11.45 11.45 0 0 0 1.47.67 11.58 11.58 0 0 0 1.76.5 9.81 9.81 0 0 0 2 .2 6.44 6.44 0 0 0 3.49-.83 3.13 3.13 0 0 0 1-3.9 2.64 2.64 0 0 0-.9-.92 5.86 5.86 0 0 0-1.47-.64q-.88-.27-2.06-.57A23.4 23.4 0 0 1 182 160a8.39 8.39 0 0 1-2.11-1 5 5 0 0 1-1.51-1.62 4.87 4.87 0 0 1-.57-2.49 5 5 0 0 1 1.79-4 8.45 8.45 0 0 1 5.43-1.47 14.8 14.8 0 0 1 2 .13 12.82 12.82 0 0 1 1.57.31 8.36 8.36 0 0 1 1.18.4q.51.22.87.42l-.34 2.55a8.62 8.62 0 0 0-2.32-1 10.67 10.67 0 0 0-3-.39 9.58 9.58 0 0 0-2.17.21 4 4 0 0 0-1.43.6 2.26 2.26 0 0 0-.78 1 3.18 3.18 0 0 0-.24 1.26 2.45 2.45 0 0 0 .38 1.4 3.14 3.14 0 0 0 1 .94 6.58 6.58 0 0 0 1.44.63q.81.25 1.71.45l2.41.66a8 8 0 0 1 2.21 1 5.31 5.31 0 0 1 1.61 1.67 5 5 0 0 1 .63 2.65 5.13 5.13 0 0 1-2.3 4.51 7 7 0 0 1-2.39 1 12.71 12.71 0 0 1-2.81.31m17.07-.14a12.64 12.64 0 0 1-2.18-.18 15.86 15.86 0 0 1-1.9-.45 9.19 9.19 0 0 1-1.54-.62 6.72 6.72 0 0 1-1.11-.68l.42-2.52a7.91 7.91 0 0 0 1.08.7 11.45 11.45 0 0 0 1.47.67 11.58 11.58 0 0 0 1.76.5 9.81 9.81 0 0 0 2 .2 6.44 6.44 0 0 0 3.49-.83 3.13 3.13 0 0 0 1-3.9 2.64 2.64 0 0 0-.9-.92 5.86 5.86 0 0 0-1.47-.64q-.88-.27-2.06-.57A23.4 23.4 0 0 1 199 160a8.39 8.39 0 0 1-2.11-1 5 5 0 0 1-1.51-1.62 4.87 4.87 0 0 1-.57-2.49 5 5 0 0 1 1.79-4 8.45 8.45 0 0 1 5.43-1.47 14.8 14.8 0 0 1 2 .13 12.82 12.82 0 0 1 1.57.31 8.36 8.36 0 0 1 1.18.4q.51.22.87.42l-.34 2.55a8.62 8.62 0 0 0-2.32-1 10.67 10.67 0 0 0-3-.39 9.58 9.58 0 0 0-2.17.21 4 4 0 0 0-1.43.6 2.26 2.26 0 0 0-.78 1 3.18 3.18 0 0 0-.24 1.26 2.45 2.45 0 0 0 .38 1.4 3.14 3.14 0 0 0 1 .94 6.58 6.58 0 0 0 1.44.63q.81.25 1.71.45l2.41.66a8 8 0 0 1 2.21 1 5.31 5.31 0 0 1 1.61 1.67 5 5 0 0 1 .63 2.65 5.13 5.13 0 0 1-2.3 4.51 7 7 0 0 1-2.39 1 12.71 12.71 0 0 1-2.81.31m11.63-.46h2.66v-20.05h-2.66zm14.53-17.95l-3.25 9.88h6.52zm4 12.21h-8l-1.9 5.74H219l6.58-20h3.92l6.61 20h-2.8z"/></svg>
