<svg xmlns="http://www.w3.org/2000/svg" viewBox="0 0 240 170"><defs><style>.a{fill:#020c7e}</style></defs><title>logo-ru</title><path class="a" d="M0 63.79a63.8 63.8 0 0 1 108.91-45.11L92.26 35.32a40.25 40.25 0 1 0 0 56.93l16.65 16.63A63.8 63.8 0 0 1 0 63.79z"/><path class="a" d="M143.09 33.36h-20.18V53.7h-20.34v20.18h20.34v20.34h20.18V73.88h20.34V53.7h-20.34zM239.19 53.7h-20.35V33.35h-20.18V53.7h-20.34v20.18h20.34v20.34h20.18V73.88h20.35zM5.15 151.99v7.48h3a7.74 7.74 0 0 0 1.93-.22 4.18 4.18 0 0 0 1.5-.7 3.18 3.18 0 0 0 1-1.25 4.48 4.48 0 0 0 .35-1.86 3 3 0 0 0-1.18-2.63 5.88 5.88 0 0 0-3.41-.82zm0 9.86v7.81H2.49v-20h5.85a8.71 8.71 0 0 1 5.31 1.33 5.11 5.11 0 0 1 1.89 4.38 7.13 7.13 0 0 1-.55 2.93 5.28 5.28 0 0 1-1.53 2 6.28 6.28 0 0 1-2.35 1.15 11.7 11.7 0 0 1-3 .36zM22.18 152v17.67h-2.66v-20.05h11.14V152zM33.66 169.67v-2.6q2.58-2 4.44-3.65a35.73 35.73 0 0 0 3.08-3 11.09 11.09 0 0 0 1.82-2.54 5.76 5.76 0 0 0 .59-2.53 3.59 3.59 0 0 0-1.08-2.73 4.46 4.46 0 0 0-3.18-1 7 7 0 0 0-2.63.5 8.35 8.35 0 0 0-2.24 1.32l-.31-2.63a7 7 0 0 1 2.34-1.08 11.76 11.76 0 0 1 3.09-.38 8.86 8.86 0 0 1 2.86.42 5.9 5.9 0 0 1 2 1.2 4.92 4.92 0 0 1 1.27 1.82 6.18 6.18 0 0 1 .43 2.35 7.55 7.55 0 0 1-.69 3.18 12.25 12.25 0 0 1-2 2.94 25.33 25.33 0 0 1-3.08 2.93q-1.82 1.48-4.09 3.14h10v2.38zM55.94 169.67v-16.88l-5.54 4.23v-2.83l6-4.57h2.16v20.05zM80.61 169.99a10.62 10.62 0 0 1-3.89-.7 8.85 8.85 0 0 1-3.11-2 9.32 9.32 0 0 1-2.06-3.3 11.9 11.9 0 0 1-.74-4.33 12.77 12.77 0 0 1 .69-4.34 9 9 0 0 1 2-3.23 8.41 8.41 0 0 1 3.08-2 11 11 0 0 1 4-.7 11.8 11.8 0 0 1 3.42.49 10.69 10.69 0 0 1 2.39 1l-.39 2.5a8.66 8.66 0 0 0-2.46-1.22 9.8 9.8 0 0 0-3-.44 6.5 6.5 0 0 0-5.05 2q-1.81 2-1.81 5.95a8.39 8.39 0 0 0 1.95 6 7 7 0 0 0 5.22 2 7.48 7.48 0 0 0 2.58-.42 11.41 11.41 0 0 0 2.22-1.26l.73 2.21a8.17 8.17 0 0 1-2.28 1.18 10.27 10.27 0 0 1-3.49.53M97 161.22v5.88h-2.29v-5.88h-5.6v-2h5.6v-5.84H97v5.88h5.6v2zM112.75 161.22v5.88h-2.29v-5.88h-5.6v-2h5.6v-5.84h2.29v5.88h5.61v2zM130.48 151.99v7.48h3a7.74 7.74 0 0 0 1.93-.22 4.17 4.17 0 0 0 1.5-.7 3.19 3.19 0 0 0 1-1.25 4.48 4.48 0 0 0 .35-1.86 3 3 0 0 0-1.18-2.63 5.88 5.88 0 0 0-3.36-.81zm0 9.86v7.81h-2.66v-20h5.85a8.71 8.71 0 0 1 5.33 1.33 5.12 5.12 0 0 1 1.89 4.38 7.12 7.12 0 0 1-.55 2.93 5.28 5.28 0 0 1-1.53 2 6.28 6.28 0 0 1-2.35 1.15 11.7 11.7 0 0 1-3 .36zM153.27 167.57a8 8 0 0 0 2.69-.43 5.47 5.47 0 0 0 2.14-1.37 6.46 6.46 0 0 0 1.43-2.45 13.25 13.25 0 0 0 0-7.34 6.46 6.46 0 0 0-1.43-2.45 5.47 5.47 0 0 0-2.14-1.37 8.48 8.48 0 0 0-5.36 0 5.45 5.45 0 0 0-2.16 1.37 6.45 6.45 0 0 0-1.44 2.46 13.25 13.25 0 0 0 0 7.34 6.45 6.45 0 0 0 1.43 2.45 5.45 5.45 0 0 0 2.16 1.37 8.05 8.05 0 0 0 2.67.43m0 2.38a10.34 10.34 0 0 1-3.78-.69 8.53 8.53 0 0 1-3.05-2 9.39 9.39 0 0 1-2-3.25 13.68 13.68 0 0 1 0-8.89 9 9 0 0 1 2-3.19 8.51 8.51 0 0 1 3.05-1.93 10.72 10.72 0 0 1 3.78-.66 10.89 10.89 0 0 1 3.84.66 8.29 8.29 0 0 1 3 1.95 9 9 0 0 1 2 3.21 13.85 13.85 0 0 1 0 8.86 9.31 9.31 0 0 1-2 3.25 8.41 8.41 0 0 1-3 2 10.5 10.5 0 0 1-3.84.69M175.53 169.99a10.62 10.62 0 0 1-3.89-.7 8.86 8.86 0 0 1-3.11-2 9.34 9.34 0 0 1-2.06-3.25 11.92 11.92 0 0 1-.74-4.33 12.74 12.74 0 0 1 .69-4.34 9 9 0 0 1 2-3.23 8.41 8.41 0 0 1 3.08-2 11 11 0 0 1 4-.7 11.8 11.8 0 0 1 3.43.45 10.71 10.71 0 0 1 2.39 1l-.42 2.58a8.67 8.67 0 0 0-2.46-1.22 9.81 9.81 0 0 0-3-.44 6.51 6.51 0 0 0-5.05 2q-1.8 2-1.81 5.95t1.95 6a7 7 0 0 0 5.22 2 7.48 7.48 0 0 0 2.58-.42 11.41 11.41 0 0 0 2.24-1.12l.73 2.21a8.16 8.16 0 0 1-2.28 1.18 10.26 10.26 0 0 1-3.49.53M194.07 169.99a10.62 10.62 0 0 1-3.89-.7 8.86 8.86 0 0 1-3.11-2 9.34 9.34 0 0 1-2.07-3.3 11.92 11.92 0 0 1-.74-4.33 12.74 12.74 0 0 1 .69-4.34 9 9 0 0 1 2-3.23 8.41 8.41 0 0 1 3.08-2 11 11 0 0 1 4-.7 11.8 11.8 0 0 1 3.43.45 10.71 10.71 0 0 1 2.39 1l-.42 2.58a8.67 8.67 0 0 0-2.46-1.22 9.81 9.81 0 0 0-3-.44 6.51 6.51 0 0 0-5.05 2q-1.8 2-1.81 5.95t1.95 6a7 7 0 0 0 5.22 2 7.48 7.48 0 0 0 2.58-.42 11.41 11.41 0 0 0 2.24-1.12l.73 2.21a8.16 8.16 0 0 1-2.28 1.18 10.26 10.26 0 0 1-3.49.53M204 149.62h2.66v16.53l11-16.53h2.86v20.05h-2.69v-16.46l-11 16.46H204v-20.05zM236.07 159.26v-7.27h-3.3a8.56 8.56 0 0 0-1.83.18 4 4 0 0 0-1.43.6 2.87 2.87 0 0 0-.94 1.11 3.83 3.83 0 0 0-.34 1.69 3.37 3.37 0 0 0 1.09 2.79 4.93 4.93 0 0 0 3.16.88zm0 2.38h-3.36l-5.54 8H224l6.08-8.51a6 6 0 0 1-3.39-1.83 5.52 5.52 0 0 1-1.17-3.74 6.27 6.27 0 0 1 .48-2.68 4.91 4.91 0 0 1 1.5-1.85 6.36 6.36 0 0 1 2.31-1.06 12.22 12.22 0 0 1 3-.34h6v20h-2.66z"/></svg>